<svg width="106" height="23" viewBox="0 0 106 23" fill="none" xmlns="http://www.w3.org/2000/svg">
<path d="M1 8.4667H3.00584L4.81109 5.48004H7.41868L8.4216 9.96003L10.4274 1.00004L12.4333 11.4534H14.6397L15.6426 15.9333L17.6485 3.9867L22.4625 12.9467L23.666 8.4667H26.8753L30.0847 12.9467H31.4887L32.8928 15.9333L43.8821 11.4534L45.5296 1.00004L47.806 11.4534L51.3465 5.48004L54.2523 7.72032L56.4587 3.987L60.0692 11.4536H63.4791L65.2844 7.72032L68.4937 16.6803L69.6972 11.4536L71.3019 14.4403L72.3048 11.4536L75.5142 21.907H77.2349L78.6362 22.3334L79.3253 18.9203L81.5317 16.6803L83.9794 14.4396L85.661 18.9204L88.744 21.9073L94.6298 21.907L96.5917 18.9203L99.3945 21.907H100.796L101.991 18.9203L105 11.4536" stroke="#ED544E" stroke-linecap="round"/>
</svg>
